<svg id="Capa_1" data-name="Capa 1" xmlns="http://www.w3.org/2000/svg" viewBox="0 0 848.89 951.79"><defs><style>.color{fill:#9ebe68}</style></defs><path class="color" d="M664.79 92.03c0 32.49 51.91 100.92 94.31 94.4 60.78-9.35 119.04-148.85 73.55-179.06-41.26-27.4-167.85 26.09-167.85 84.65ZM542.99 73.3c-120.91-33.43-244.44-7.56-259.41 19.62-10.2 18.53 5.66 111.08 16.8 168.12 5.5 28.2 18.19 54.49 36.92 76.28 33.13 38.53 87.34 106.88 111.96 167.61 36.77 90.69 35.5 152.01 60.55 211.45S597.93 871.15 671.61 845c73.68-26.16 89.38-376.04 89.38-376.04S776.69 149.16 543 73.3Zm-126.2 260.06c-13.89 1.75-33.9-1.87-44.85-10.6-10.85-8.66-17.48-22.61-8.01-35.24 13.95-23.25 65.41-23.14 82.21-3.74 22.25 25.7-3.28 46.29-29.35 49.57Zm58.96-227.41c23.25-6.98 51.12 7.09 53.29 23.45 4.21 31.81-32.55 34.88-53.48 23.25s-23.06-39.73.19-46.7m46.31 342.01c-23.53 2.93-48.06-18.02-32.55-39.53 9.8-13.6 51.15-11.94 53.48 13.95 1.25 13.9-8.78 24.06-20.93 25.58m67.43-225.55c5.22-19.35 50.88-19.68 60.46 4.65 7.99 20.29-15.77 27.53-28.82 25.25-20.61-3.61-35.61-15.17-31.64-29.9m58.77 456.88c-19.34 19.18-58.02 2.06-54.05-17.17 4.06-19.66 30.54-19.48 44.53-12.24 9.24 4.78 19.07 19.94 9.52 29.41m41.03-178.78c-10.21 2.51-41.96.66-50.54-12.28-8.62-13 .48-22.83 13.07-25.67s32.74.41 43.9 10.27c9.86 8.71 6.57 24.48-6.43 27.68m-58.7 393.98c-.25-.06-.52-.11-.77-.17.57.08 1.15.15 1.72.21-.33-.02-.63-.02-.96-.04Z"/><path class="color" d="M665.21 912.48c-2.06-8.41-16.63-15.67-28.99-17.46-236.16-65.73-151.07-320.66-297.41-480.16-60.82-81.64-106.49-169.39-104.84-276.96.16-10.3-2.86-20.44-8.61-28.97-36.5-54.21-102.27-98.05-151.87-101.9h-.02C-9.46-.54-9.52 96.97 12.21 155.44c14.65 39.41 63.24 89.68 88.25 122 13.49 17.44 16.24 40.95 7.08 61.02C87.1 383.14 35.14 419 75.39 521.85c45 98.25 153.07 158.5 232.18 228.35 65.98 61.53 81.22 152.87 178.39 188.36 46.68 18.67 102.62 19.63 166.27-10.57 10.96-4.96 14.22-10.45 12.98-15.52Zm-457.48-656.5c-1.41 8.45-12.34 11.24-17.77 4.63-7.49-9.12-15.5-25.85-27.85-39.68-3.43-3.82-7.36-7.2-11.49-10.24-78.98-58.31-106.3-104.64-94.73-132.44 3.28-7.85 12.08-11.67 20.07-8.77 43.68 15.83 141.34 128.85 131.77 186.49Zm150.18 368.48c-4.3 7.73-12.3 12.08-20.54 12.08-3.86 0-7.77-.96-11.38-2.96-76.77-42.62-104.31-112.57-105.45-115.53-4.63-12.1 1.41-25.68 13.51-30.32 12.08-4.63 25.6 1.39 30.28 13.44.39 1.02 23.36 57.49 84.42 91.38 11.34 6.3 15.42 20.6 9.14 31.91Z"/></svg>